<svg xmlns="http://www.w3.org/2000/svg" viewBox="0 0 32 32">
  <!-- Trunk -->
  <rect x="13" y="22" width="6" height="8" fill="#8B6F47"/>
  <rect x="14" y="17" width="4" height="5" fill="#A07840"/>
  <!-- Branches -->
  <line x1="15" y1="20" x2="8"  y2="15" stroke="#8B6F47" stroke-width="1.5"/>
  <line x1="17" y1="20" x2="24" y2="15" stroke="#8B6F47" stroke-width="1.5"/>
  <line x1="15" y1="16" x2="9"  y2="11" stroke="#7A5C10" stroke-width="1.2"/>
  <line x1="17" y1="16" x2="23" y2="11" stroke="#7A5C10" stroke-width="1.2"/>
  <line x1="16" y1="12" x2="12" y2="8"  stroke="#7A5C10" stroke-width="1"/>
  <line x1="16" y1="12" x2="20" y2="8"  stroke="#7A5C10" stroke-width="1"/>
  <line x1="16" y1="8"  x2="16" y2="4"  stroke="#7A5C10" stroke-width="1"/>
  <!-- Pixel leaves -->
  <rect x="6"  y="12" width="4" height="4" fill="#5A9216"/>
  <rect x="7"  y="13" width="2" height="2" fill="#96D438"/>
  <rect x="22" y="12" width="4" height="4" fill="#D4537E"/>
  <rect x="23" y="13" width="2" height="2" fill="#F0A0BC"/>
  <rect x="10" y="6"  width="4" height="4" fill="#378ADD"/>
  <rect x="11" y="7"  width="2" height="2" fill="#7AB5F0"/>
  <rect x="18" y="6"  width="4" height="4" fill="#7F77DD"/>
  <rect x="19" y="7"  width="2" height="2" fill="#B8B2F5"/>
  <rect x="14" y="2"  width="4" height="4" fill="#5A9216"/>
  <rect x="15" y="3"  width="2" height="2" fill="#96D438"/>
</svg>
